<svg xmlns="http://www.w3.org/2000/svg" viewBox="0 0 618 618"><defs><style>.cls-1{fill:#352e2e;}.cls-2{fill:#c1272d;}.cls-3{fill:#fffdfa;}</style></defs><g id="图层_2" data-name="图层 2"><g id="图层_8" data-name="图层 8"><path class="cls-1" d="M395.6,610.7A46.46,46.46,0,0,1,382,577.85V452.15a46.12,46.12,0,0,1,13.61-32.85l23.69-23.7A46.17,46.17,0,0,1,452.15,382H577.86a46.45,46.45,0,0,1,32.84,13.6h0a4.27,4.27,0,0,0,7.3-3V130.41a73.44,73.44,0,0,0-21.51-51.92l-57-57A73.44,73.44,0,0,0,487.59,0H130.41A73.44,73.44,0,0,0,78.49,21.51l-57,57A73.44,73.44,0,0,0,0,130.41V487.59a73.44,73.44,0,0,0,21.51,51.92l57,57A73.44,73.44,0,0,0,130.41,618H392.58a4.27,4.27,0,0,0,3-7.3Z"/><path class="cls-2" d="M577.85,618H452.15a16.41,16.41,0,0,1-11.63-4.82l-23.7-23.7A16.41,16.41,0,0,1,412,577.85V452.15a16.41,16.41,0,0,1,4.82-11.63l23.7-23.7A16.41,16.41,0,0,1,452.15,412h125.7a16.41,16.41,0,0,1,11.63,4.82l23.7,23.7A16.41,16.41,0,0,1,618,452.15v125.7a16.41,16.41,0,0,1-4.82,11.63l-23.7,23.7A16.41,16.41,0,0,1,577.85,618Z"/><rect class="cls-3" x="89.28" y="100" width="203.45" height="31.25" rx="15.63"/><rect class="cls-3" x="89.28" y="175.37" width="203.45" height="31.25" rx="15.63"/><rect class="cls-3" x="89.28" y="250.75" width="203.45" height="31.25" rx="15.63"/></g></g></svg>