<svg xmlns="http://www.w3.org/2000/svg" viewBox="0 0 618 618"><defs><style>.cls-1{fill:#333;}.cls-2{fill:#c1272d;}.cls-3{fill:#fff;}</style></defs><g id="图层_2" data-name="图层 2"><g id="图层_8" data-name="图层 8"><path class="cls-1" d="M395.6,610.7A46.46,46.46,0,0,1,382,577.85V452.15a46.12,46.12,0,0,1,13.61-32.85l23.69-23.7A46.17,46.17,0,0,1,452.15,382H577.86a46.45,46.45,0,0,1,32.84,13.6h0a4.27,4.27,0,0,0,7.3-3V130.41a73.44,73.44,0,0,0-21.51-51.92l-57-57A73.44,73.44,0,0,0,487.59,0H130.41A73.44,73.44,0,0,0,78.49,21.51l-57,57A73.44,73.44,0,0,0,0,130.41V487.59a73.44,73.44,0,0,0,21.51,51.92l57,57A73.44,73.44,0,0,0,130.41,618H392.58a4.27,4.27,0,0,0,3-7.3Z"/><path class="cls-2" d="M577.85,618H452.15a16.41,16.41,0,0,1-11.63-4.82l-23.7-23.7A16.41,16.41,0,0,1,412,577.85V452.15a16.41,16.41,0,0,1,4.82-11.63l23.7-23.7A16.41,16.41,0,0,1,452.15,412h125.7a16.41,16.41,0,0,1,11.63,4.82l23.7,23.7A16.41,16.41,0,0,1,618,452.15v125.7a16.41,16.41,0,0,1-4.82,11.63l-23.7,23.7A16.41,16.41,0,0,1,577.85,618Z"/><path class="cls-3" d="M127.63,105H319.87a17.38,17.38,0,0,1,12.29,5.09l5.25,5.25a17.38,17.38,0,0,1,5.09,12.29v.58a17.34,17.34,0,0,1-5.09,12.28l-5.25,5.25a17.38,17.38,0,0,1-12.29,5.09H127.63a17.38,17.38,0,0,1-12.29-5.09l-5.25-5.25A17.34,17.34,0,0,1,105,128.21v-.58a17.38,17.38,0,0,1,5.09-12.29l5.25-5.25A17.38,17.38,0,0,1,127.63,105Z"/><path class="cls-3" d="M127.63,200.83H319.87a17.38,17.38,0,0,1,12.29,5.09l5.25,5.25a17.38,17.38,0,0,1,5.09,12.29V224a17.38,17.38,0,0,1-5.09,12.29l-5.25,5.25a17.38,17.38,0,0,1-12.29,5.09H127.63a17.38,17.38,0,0,1-12.29-5.09l-5.25-5.25A17.38,17.38,0,0,1,105,224v-.58a17.38,17.38,0,0,1,5.09-12.29l5.25-5.25A17.38,17.38,0,0,1,127.63,200.83Z"/><path class="cls-3" d="M127.63,296.67H319.87a17.38,17.38,0,0,1,12.29,5.09l5.25,5.25a17.34,17.34,0,0,1,5.09,12.28v.58a17.38,17.38,0,0,1-5.09,12.29l-5.25,5.25a17.38,17.38,0,0,1-12.29,5.09H127.63a17.38,17.38,0,0,1-12.29-5.09l-5.25-5.25A17.38,17.38,0,0,1,105,319.87v-.58A17.34,17.34,0,0,1,110.09,307l5.25-5.25A17.38,17.38,0,0,1,127.63,296.67Z"/></g></g></svg>