<svg xmlns="http://www.w3.org/2000/svg" viewBox="0 0 394.5 49.28"><defs><style>.cls-1{fill:#332c2b;}.cls-2{fill:#c1272d;}.cls-3{fill:#352e2e;}</style></defs><g id="图层_2" data-name="图层 2"><g id="图层_1-2" data-name="图层 1"><path class="cls-1" d="M26.13,46.09h0a3,3,0,0,1-3,3H6.05a3,3,0,0,1-2.13-.89l-3-3.05A3,3,0,0,1,0,43V4.78a3,3,0,0,1,3-3H23.13a3,3,0,0,1,3,3h0a3,3,0,0,1-3,3H9a3,3,0,0,0-3,3v8.11a3,3,0,0,0,3,3H23.13a3,3,0,0,1,3,3h0a3,3,0,0,1-3,3H9a3,3,0,0,0-3,3v9.22a3,3,0,0,0,3,3H23.13A3,3,0,0,1,26.13,46.09Z"/><path class="cls-1" d="M33.22,16.74a3,3,0,0,1,3,2.5l3.88,24h.79l3.76-24a3,3,0,0,1,2.95-2.52h0a3,3,0,0,1,2.94,3.51L45.7,46.77a3,3,0,0,1-2.93,2.45h-4.6a3,3,0,0,1-2.93-2.44l-5-26.51a3,3,0,0,1,2.94-3.53Z"/><path class="cls-1" d="M73.14,37.16H63.7a3,3,0,0,0-3,3h0a3,3,0,0,0,3,3h9.44a3,3,0,0,1,3,3h0a3,3,0,0,1-3,3H60.7a3,3,0,0,1-2.14-.89l-3-3a3,3,0,0,1-.87-2.11V22.8a3,3,0,0,1,.88-2.12l3-3a3,3,0,0,1,2.12-.88h9.45a3,3,0,0,1,2.13.88l3,3a3,3,0,0,1,.88,2.12V34.16A3,3,0,0,1,73.14,37.16ZM63.7,31.89h3.43a3,3,0,0,0,3-3V25.8a3,3,0,0,0-3-3H63.7a3,3,0,0,0-3,3v3.09A3,3,0,0,0,63.7,31.89Z"/><path class="cls-1" d="M82.77,49.28h0a3,3,0,0,1-3-3V22.72a3,3,0,0,1,.88-2.12l3.07-3.05a3,3,0,0,1,2.12-.88h9.55a3,3,0,0,1,2.13.89l3,3a3,3,0,0,1,.87,2.11V46.29a3,3,0,0,1-3,3h0a3,3,0,0,1-3-3V25.66a3,3,0,0,0-3-3H88.77a3,3,0,0,0-3,3V46.29A3,3,0,0,1,82.77,49.28Z"/><path class="cls-1" d="M124,45.82v.79a2.61,2.61,0,0,1-2.61,2.61H116a2.64,2.64,0,0,1-1.84-.76l-3.29-3.29a2.6,2.6,0,0,1-.76-1.84V25.53a2.6,2.6,0,0,0-2.61-2.6h0a2.61,2.61,0,0,1-2.61-2.6v-.79a2.61,2.61,0,0,1,2.61-2.61h0a2.6,2.6,0,0,0,2.61-2.6v-2.7a2.59,2.59,0,0,1,2.6-2.6h.79a2.6,2.6,0,0,1,2.61,2.6v2.7a2.6,2.6,0,0,0,2.61,2.6h2.7A2.61,2.61,0,0,1,124,19.54v.79a2.61,2.61,0,0,1-2.61,2.6h-2.7a2.6,2.6,0,0,0-2.61,2.6V40.62a2.6,2.6,0,0,0,2.61,2.6h2.7A2.61,2.61,0,0,1,124,45.82Z"/><path class="cls-2" d="M160.62,23.67l-.05,0a3,3,0,0,0,0,4.2h0a3,3,0,0,1,.87,2.11V43.18a3,3,0,0,1-.86,2.1l-3,3a3,3,0,0,1-2.13.89H138.4a3,3,0,0,1-3-3V4.9a3,3,0,0,1,3-3h17.07a3,3,0,0,1,2.13.89l3,3.05a3,3,0,0,1,.86,2.1V21.58A3,3,0,0,1,160.62,23.67ZM141.42,10.9v8.91a3,3,0,0,0,3,3h8.08a3,3,0,0,0,3-3l0-8.91a3,3,0,0,0-3-3h-8.12A3,3,0,0,0,141.42,10.9Zm11.12,17.89h-8.13a3,3,0,0,0-3,3v8.45a3,3,0,0,0,3,3h8.13a3,3,0,0,0,3-3V31.78A3,3,0,0,0,152.54,28.79Z"/><path class="cls-1" d="M169.05,48.35l-3.21-3.21a2.7,2.7,0,0,1-.8-1.93V34.09a2.74,2.74,0,0,1,.81-2l3.2-3.15A2.75,2.75,0,0,1,171,28.2h7a2.73,2.73,0,0,0,2.73-2.73h0a2.74,2.74,0,0,0-2.73-2.74H168A2.74,2.74,0,0,1,165.23,20v-.53A2.74,2.74,0,0,1,168,16.74h12.76a2.7,2.7,0,0,1,1.93.8l3.22,3.21a2.72,2.72,0,0,1,.8,1.93V46.42a2.74,2.74,0,0,1-2.74,2.73H171A2.75,2.75,0,0,1,169.05,48.35Zm8.89-14.75h-4.16A2.74,2.74,0,0,0,171,36.34V41a2.74,2.74,0,0,0,2.74,2.74h4.16A2.74,2.74,0,0,0,180.67,41V36.34A2.74,2.74,0,0,0,177.94,33.6Z"/><path class="cls-1" d="M193.44,49.28h0a3,3,0,0,1-3-3V22.72a3,3,0,0,1,.88-2.12l3.07-3.05a3,3,0,0,1,2.12-.88h9.55a3,3,0,0,1,2.14.89l3,3a3,3,0,0,1,.87,2.11V46.29a3,3,0,0,1-3,3h0a3,3,0,0,1-3-3V25.66a3,3,0,0,0-3-3h-3.63a3,3,0,0,0-3,3V46.29A3,3,0,0,1,193.44,49.28Z"/><path class="cls-1" d="M221.62,16.87H228a3,3,0,0,0,3-3v-9a3,3,0,0,1,3-3h0a3,3,0,0,1,3,3V46.22a3,3,0,0,1-3,3H221.64a3,3,0,0,1-2.13-.88l-3.06-3.05a3,3,0,0,1-.87-2.12V22.87a3,3,0,0,1,.89-2.14l3.05-3A3,3,0,0,1,221.62,16.87Zm3,26.35H228a3,3,0,0,0,3-3V25.86a3,3,0,0,0-3-3h-3.43a3,3,0,0,0-3,3V40.22A3,3,0,0,0,224.58,43.22Z"/><path class="cls-3" d="M257.17,22a1.63,1.63,0,0,1,.64-1.29,2.3,2.3,0,0,1,1.54-.54h1.53a2.32,2.32,0,0,1,1.54.54,1.63,1.63,0,0,1,.64,1.29v21.2a4,4,0,0,1-.45,1.69,4.29,4.29,0,0,1-1.09,1.48l-1.66,1.34a5.11,5.11,0,0,1-1.54,1,4,4,0,0,1-1.41.37,1.17,1.17,0,0,1-1-.56,2.13,2.13,0,0,1-.41-1.31V46a3.51,3.51,0,0,1,.22-1.34c.15-.36.35-.53.6-.53s.46-.19.6-.57a3.67,3.67,0,0,0,.23-1.37ZM258.5,1.29a2.31,2.31,0,0,1,1.55-.54,2.08,2.08,0,0,1,1.49.54l1.14.86a1.8,1.8,0,0,1,.64,1.34,1.8,1.8,0,0,1-.64,1.34l-1.14.86a2,2,0,0,1-1.49.59,2.16,2.16,0,0,1-1.55-.59l-.95-.86a1.71,1.71,0,0,1-.7-1.34,1.71,1.71,0,0,1,.7-1.34Zm4.18,11.11a1.69,1.69,0,0,1,.64,1.32,1.67,1.67,0,0,1-.64,1.31l-1.14.91a2,2,0,0,1-1.49.6,2.17,2.17,0,0,1-1.55-.6l-.95-.91a1.59,1.59,0,0,1-.7-1.31,1.61,1.61,0,0,1,.7-1.32l.95-.8a2.16,2.16,0,0,1,1.55-.59,2,2,0,0,1,1.49.59ZM291.85.75q0-.31.66-.54A5.49,5.49,0,0,1,294.13,0h1.52a3.13,3.13,0,0,1,1.52.35,1,1,0,0,1,.64.88,2.58,2.58,0,0,1-.45,1.24,5,5,0,0,1-1.07,1.29l-1.52,1.39A7.82,7.82,0,0,1,293,6a6,6,0,0,1-2.06.4h-3.49a2.35,2.35,0,0,0-1.58.54,1.63,1.63,0,0,0-.64,1.29V13.1a1.64,1.64,0,0,0,.64,1.26,2.27,2.27,0,0,0,1.58.56h8.24a2.26,2.26,0,0,1,1.52.54,1.63,1.63,0,0,1,.64,1.29V18a1.74,1.74,0,0,1-.64,1.37,2.19,2.19,0,0,1-1.52.57h-8.24a2.35,2.35,0,0,0-1.58.54,1.68,1.68,0,0,0-.64,1.35v3.84a1.65,1.65,0,0,0,.64,1.3,2.35,2.35,0,0,0,1.58.54h8.24a2.18,2.18,0,0,1,1.52.56,1.68,1.68,0,0,1,.64,1.31V43.45a3.92,3.92,0,0,1-.45,1.68,3.67,3.67,0,0,1-1.07,1.42l-1.52,1.39a5.44,5.44,0,0,1-1.81,1,6.47,6.47,0,0,1-2.06.37h-22a2.32,2.32,0,0,1-1.56-.56,1.67,1.67,0,0,1-.66-1.31v-18a1.67,1.67,0,0,1,.66-1.31,2.32,2.32,0,0,1,1.56-.56h8.18a2.35,2.35,0,0,0,1.58-.54,1.67,1.67,0,0,0,.63-1.3V21.81a1.71,1.71,0,0,0-.63-1.35,2.35,2.35,0,0,0-1.58-.54H268.9a2.33,2.33,0,0,1-1.56-.57,1.73,1.73,0,0,1-.66-1.37V16.75a1.62,1.62,0,0,1,.66-1.29,2.41,2.41,0,0,1,1.56-.54h8.18a2.27,2.27,0,0,0,1.58-.56,1.66,1.66,0,0,0,.63-1.26V8.27A1.65,1.65,0,0,0,278.66,7a2.35,2.35,0,0,0-1.58-.54H268.9a2.45,2.45,0,0,1-1.56-.53,1.68,1.68,0,0,1-.66-1.35V3.33A1.64,1.64,0,0,1,267.34,2a2.41,2.41,0,0,1,1.56-.54h20.73a4.77,4.77,0,0,0,1.58-.22C291.64,1.09,291.85.93,291.85.75Zm.06,33.55a1.61,1.61,0,0,0-.63-1.28,2.36,2.36,0,0,0-1.59-.54h-14.9a2.35,2.35,0,0,0-1.58.54,1.59,1.59,0,0,0-.64,1.28v8.11a1.65,1.65,0,0,0,.64,1.34,2.35,2.35,0,0,0,1.58.54h14.9a2.36,2.36,0,0,0,1.59-.54,1.67,1.67,0,0,0,.63-1.34Z"/><path class="cls-3" d="M320.13,49.28h-4.69l-9.26-.1a2.26,2.26,0,0,1-1.52-.54A1.68,1.68,0,0,1,304,47.3V45.74c0-.5,0-1.12,0-1.85a14.17,14.17,0,0,1,.16-1.85l2.22-20.19a2.43,2.43,0,0,0-.22-1.34.87.87,0,0,0-.79-.54,1.11,1.11,0,0,1-.95-.57,2.38,2.38,0,0,1-.38-1.38V16.93a1.79,1.79,0,0,1,.63-1.38,2.28,2.28,0,0,1,1.59-.57h14.26a2.3,2.3,0,0,1,1.55.57,1.74,1.74,0,0,1,.67,1.38v1.14a1.68,1.68,0,0,1-.67,1.36,2.38,2.38,0,0,1-1.55.54h-5.83a2.67,2.67,0,0,0-1.62.54,2,2,0,0,0-.85,1.34L310,42.31a1.45,1.45,0,0,0,.45,1.34,2.05,2.05,0,0,0,1.45.53h2.41a2.45,2.45,0,0,0,1.56-.53,1.68,1.68,0,0,0,.66-1.35V29.8a1.71,1.71,0,0,1,.67-1.37,2.3,2.3,0,0,1,1.55-.57h1.4a2.19,2.19,0,0,1,1.52.57,1.76,1.76,0,0,1,.63,1.37V47.38a1.74,1.74,0,0,1-.63,1.33A2.19,2.19,0,0,1,320.13,49.28Zm-16-47.45a1.63,1.63,0,0,1,.63-1.29A2.36,2.36,0,0,1,306.31,0H320a2.38,2.38,0,0,1,1.55.54,1.59,1.59,0,0,1,.67,1.29V3.06a1.6,1.6,0,0,1-.67,1.29,2.38,2.38,0,0,1-1.55.54H306.31a2.36,2.36,0,0,1-1.59-.54,1.65,1.65,0,0,1-.63-1.29Zm30.11.77a1.55,1.55,0,0,0,.67,1.27,2.37,2.37,0,0,0,1.55.53h7a2.26,2.26,0,0,1,1.52.54,1.71,1.71,0,0,1,.64,1.34V47.4a1.75,1.75,0,0,1-.64,1.32,2.23,2.23,0,0,1-1.52.56h-5.39a2.29,2.29,0,0,1-1.55-.56,1.69,1.69,0,0,1-.67-1.32V46.17a1.71,1.71,0,0,1,.6-1.34,2.09,2.09,0,0,1,1.43-.54,2,2,0,0,0,1.4-.54,1.75,1.75,0,0,0,.57-1.34V11.27a1.71,1.71,0,0,0-.64-1.34,2.26,2.26,0,0,0-1.52-.54h-1.27a2.38,2.38,0,0,0-1.55.54,1.65,1.65,0,0,0-.67,1.34V47.4a1.73,1.73,0,0,1-.63,1.32,2.27,2.27,0,0,1-1.59.56h-4.69a2.18,2.18,0,0,1-1.52-.56,1.73,1.73,0,0,1-.63-1.32V46.17a2,2,0,0,1,.46-1.34,1.47,1.47,0,0,1,1.15-.54,1.37,1.37,0,0,0,1.12-.54,2,2,0,0,0,.44-1.34V11.27a2.08,2.08,0,0,0-.44-1.34,1.37,1.37,0,0,0-1.12-.54,1.46,1.46,0,0,1-1.15-.53,1.91,1.91,0,0,1-.46-1.29V6.33A2,2,0,0,1,325.6,5a1.49,1.49,0,0,1,1.15-.53,1.37,1.37,0,0,0,1.12-.54,2,2,0,0,0,.44-1.29V2.2A1.65,1.65,0,0,1,329,.89a2.35,2.35,0,0,1,1.57-.57H332a2.36,2.36,0,0,1,1.6.56,1.66,1.66,0,0,1,.64,1.3Z"/><path class="cls-3" d="M369.14,7.19a2.52,2.52,0,0,0-1.55.5,1.38,1.38,0,0,0-.67,1.11,1.33,1.33,0,0,0,.67,1.17,2.69,2.69,0,0,0,1.55.45H373a2.26,2.26,0,0,1,1.52.54,1.71,1.71,0,0,1,.63,1.35v1.25a1.65,1.65,0,0,1-.63,1.3,2.22,2.22,0,0,1-1.52.55h-3.87a2.83,2.83,0,0,0-1.55.42,1.18,1.18,0,0,0-.67,1,1.12,1.12,0,0,0,.67,1,2.91,2.91,0,0,0,1.55.4H373a2.19,2.19,0,0,1,1.52.57,1.74,1.74,0,0,1,.63,1.33v1.19a1.71,1.71,0,0,1-.63,1.36,2.26,2.26,0,0,1-1.52.54h-3.87a2.3,2.3,0,0,0-1.55.57,1.65,1.65,0,0,0-.67,1.31v3.65a1.65,1.65,0,0,1-.64,1.34,2.27,2.27,0,0,1-1.53.54H354.69a2.31,2.31,0,0,1-1.53-.54,1.73,1.73,0,0,1-.63-1.36V27.51a1.73,1.73,0,0,1,.63-1.36,2.26,2.26,0,0,1,1.52-.54h4.19a3.25,3.25,0,0,0,1.52-.34,1,1,0,0,0,.63-.92c0-.32-.21-.59-.63-.82a3.25,3.25,0,0,0-1.52-.34h-4.19a2.26,2.26,0,0,1-1.52-.54,1.71,1.71,0,0,1-.63-1.36V20.1a1.74,1.74,0,0,1,.63-1.33,2.19,2.19,0,0,1,1.52-.57h4.19a2.76,2.76,0,0,0,1.52-.4,1.13,1.13,0,0,0,.63-1,1.2,1.2,0,0,0-.63-1,2.68,2.68,0,0,0-1.52-.42h-4.19a2.22,2.22,0,0,1-1.52-.55,1.65,1.65,0,0,1-.63-1.3V12.31a1.71,1.71,0,0,1,.63-1.35,2.26,2.26,0,0,1,1.52-.54h4.19a2.55,2.55,0,0,0,1.52-.45A1.35,1.35,0,0,0,361,8.8a1.41,1.41,0,0,0-.63-1.11,2.4,2.4,0,0,0-1.52-.5h-4.19a2.26,2.26,0,0,1-1.52-.54,1.71,1.71,0,0,1-.63-1.36V4.15a1.79,1.79,0,0,1,.63-1.38,2.19,2.19,0,0,1,1.52-.57h4.19a3.38,3.38,0,0,0,1.52-.32q.63-.33.63-.75c0-.32.23-.59.68-.81A3.63,3.63,0,0,1,363.27,0h1.47a3.47,3.47,0,0,1,1.54.32c.43.22.64.49.64.81s.22.53.67.75a3.57,3.57,0,0,0,1.55.32H373a2.19,2.19,0,0,1,1.52.57,1.79,1.79,0,0,1,.63,1.38V5.29a1.71,1.71,0,0,1-.63,1.36,2.26,2.26,0,0,1-1.52.54Z"/><path class="cls-3" d="M358.42,45.47a1.63,1.63,0,0,1-.64,1.29,2.4,2.4,0,0,1-1.6.54h-1.47a2.3,2.3,0,0,1-1.54-.54,1.63,1.63,0,0,1-.64-1.29V35.88a1.67,1.67,0,0,1,.63-1.3,2.26,2.26,0,0,1,1.52-.54h13.25a3,3,0,0,0,1.62-.43,1.28,1.28,0,0,0,.67-1.08,1.16,1.16,0,0,1,.64-1,2.92,2.92,0,0,1,1.6-.4h1.35a3.1,3.1,0,0,1,1.63.4,1.16,1.16,0,0,1,.67,1,1.27,1.27,0,0,0,.64,1.08,2.8,2.8,0,0,0,1.58.43h13.95a2.43,2.43,0,0,1,1.56.54,1.61,1.61,0,0,1,.66,1.29V46a1.62,1.62,0,0,1-.66,1.29,2.43,2.43,0,0,1-1.56.54h-9.95a2.24,2.24,0,0,1-1.52-.54,1.61,1.61,0,0,1-.64-1.29V45.2a1.7,1.7,0,0,1,.63-1.34,2.24,2.24,0,0,1,1.51-.54h4.09a2.39,2.39,0,0,0,1.58-.53,1.67,1.67,0,0,0,.62-1.29v-.65a1.61,1.61,0,0,0-.63-1.28A2.32,2.32,0,0,0,386.4,39h-8.08a2.35,2.35,0,0,0-1.58.54,1.61,1.61,0,0,0-.63,1.28V47.4a1.69,1.69,0,0,1-.67,1.32,2.43,2.43,0,0,1-1.63.56h-1.35a2.3,2.3,0,0,1-1.6-.56,1.71,1.71,0,0,1-.64-1.32V40.85a1.57,1.57,0,0,0-.67-1.28A2.44,2.44,0,0,0,368,39h-7.38a2.26,2.26,0,0,0-1.52.54,1.61,1.61,0,0,0-.63,1.28Z"/><path class="cls-2" d="M394.09,11.84a4.1,4.1,0,0,0,.41-1.69V1.83a1.59,1.59,0,0,0-.67-1.29A2.39,2.39,0,0,0,392.27,0H379.16a2.38,2.38,0,0,0-1.55.54,1.59,1.59,0,0,0-.67,1.29V29.2a1.66,1.66,0,0,0,.67,1.35,2.43,2.43,0,0,0,1.57.53h1.41a2.92,2.92,0,0,0,1.6-.4,1.13,1.13,0,0,0,.64-.94,1.18,1.18,0,0,1,.64-1,2.87,2.87,0,0,1,1.58-.4h7.23a2.35,2.35,0,0,0,1.56-.57,1.67,1.67,0,0,0,.66-1.31V18.52a4.06,4.06,0,0,0-.41-1.69,3.14,3.14,0,0,0-1-1.31,1.49,1.49,0,0,1-.57-1.16,1.63,1.63,0,0,1,.57-1.21A3.14,3.14,0,0,0,394.09,11.84Zm-5.49,9.69a1.78,1.78,0,0,1-.62,1.34,2.22,2.22,0,0,1-1.57.59H385a2.22,2.22,0,0,1-1.57-.59,1.79,1.79,0,0,1-.63-1.34V18.84a1.7,1.7,0,0,1,.63-1.34A2.32,2.32,0,0,1,385,17h1.38a2.32,2.32,0,0,1,1.57.54,1.69,1.69,0,0,1,.62,1.34Zm0-11.48a1.73,1.73,0,0,1-.62,1.36,2.24,2.24,0,0,1-1.57.56H385a2.24,2.24,0,0,1-1.57-.56,1.74,1.74,0,0,1-.63-1.36V6.75a1.68,1.68,0,0,1,.63-1.3A2.24,2.24,0,0,1,385,4.89h1.38a2.24,2.24,0,0,1,1.57.56,1.67,1.67,0,0,1,.62,1.3Z"/></g></g></svg>