<svg xmlns="http://www.w3.org/2000/svg" viewBox="0 0 550.92 342.11"><defs><style>.cls-1{fill:#c1272d;}</style></defs><g id="图层_2" data-name="图层 2"><g id="图层_1-2" data-name="图层 1"><path d="M58.27,335h0a6.7,6.7,0,0,1-6.69,6.69H13.49a6.7,6.7,0,0,1-4.74-2L2,332.9A6.69,6.69,0,0,1,0,328.18V242.85a6.7,6.7,0,0,1,6.7-6.69H51.58a6.7,6.7,0,0,1,6.69,6.69h0a6.7,6.7,0,0,1-6.69,6.69H20.09a6.69,6.69,0,0,0-6.7,6.68v18.07a6.69,6.69,0,0,0,6.7,6.69H51.58a6.69,6.69,0,0,1,6.69,6.69h0a6.69,6.69,0,0,1-6.69,6.68H20.09a6.7,6.7,0,0,0-6.7,6.69v20.57a6.7,6.7,0,0,0,6.7,6.69H51.58A6.69,6.69,0,0,1,58.27,335Z"/><path d="M74.09,269.52a6.66,6.66,0,0,1,6.57,5.59l8.66,53.48h1.76l8.39-53.45a6.65,6.65,0,0,1,6.58-5.62h0a6.65,6.65,0,0,1,6.55,7.83l-10.69,59.14A6.65,6.65,0,0,1,95.38,342H85.14a6.66,6.66,0,0,1-6.55-5.43l-11-59.14a6.66,6.66,0,0,1,6.55-7.87Z"/><path d="M163.11,315.07h-21a6.68,6.68,0,0,0-6.69,6.69h0a6.68,6.68,0,0,0,6.69,6.68h21a6.7,6.7,0,0,1,6.7,6.69h0a6.69,6.69,0,0,1-6.7,6.68H135.38a6.73,6.73,0,0,1-4.77-2l-6.7-6.8a6.71,6.71,0,0,1-1.93-4.69V283a6.68,6.68,0,0,1,2-4.72l6.68-6.68a6.67,6.67,0,0,1,4.74-2h21.07a6.71,6.71,0,0,1,4.75,2l6.68,6.69a6.69,6.69,0,0,1,1.95,4.72v25.35A6.69,6.69,0,0,1,163.11,315.07Zm-21-11.75h7.65a6.7,6.7,0,0,0,6.7-6.69v-6.91a6.69,6.69,0,0,0-6.7-6.68h-7.65a6.68,6.68,0,0,0-6.69,6.68v6.91A6.69,6.69,0,0,0,142.07,303.32Z"/><path d="M184.6,342.11h0a6.7,6.7,0,0,1-6.7-6.69V282.88a6.68,6.68,0,0,1,2-4.74l6.85-6.82a6.68,6.68,0,0,1,4.72-1.95h21.3a6.69,6.69,0,0,1,4.76,2l6.73,6.79a6.68,6.68,0,0,1,1.94,4.7v52.57a6.7,6.7,0,0,1-6.7,6.69h0a6.69,6.69,0,0,1-6.69-6.69v-46a6.7,6.7,0,0,0-6.7-6.69H198a6.7,6.7,0,0,0-6.7,6.69v46A6.7,6.7,0,0,1,184.6,342.11Z"/><path d="M276.64,334.39v1.77a5.81,5.81,0,0,1-5.81,5.8H258.74a5.81,5.81,0,0,1-4.11-1.7l-7.34-7.33a5.77,5.77,0,0,1-1.7-4.1V289.14a5.81,5.81,0,0,0-5.81-5.81h0a5.81,5.81,0,0,1-5.82-5.8v-1.77a5.81,5.81,0,0,1,5.82-5.8h0a5.81,5.81,0,0,0,5.81-5.8v-6a5.81,5.81,0,0,1,5.81-5.8h1.77a5.81,5.81,0,0,1,5.81,5.8v6a5.81,5.81,0,0,0,5.81,5.8h6a5.81,5.81,0,0,1,5.81,5.8v1.77a5.81,5.81,0,0,1-5.81,5.8h-6a5.81,5.81,0,0,0-5.81,5.81v33.65a5.81,5.81,0,0,0,5.81,5.8h6A5.81,5.81,0,0,1,276.64,334.39Z"/><path class="cls-1" d="M380.53,285l-.1.11a6.66,6.66,0,0,0,.05,9.37h0a6.66,6.66,0,0,1,2,4.71V328.5a6.64,6.64,0,0,1-1.93,4.68L373.8,340a6.66,6.66,0,0,1-4.75,2H331a6.67,6.67,0,0,1-6.67-6.66V243.12a6.67,6.67,0,0,1,6.67-6.66h38.07a6.66,6.66,0,0,1,4.75,2l6.71,6.8a6.64,6.64,0,0,1,1.93,4.68v30.4A6.66,6.66,0,0,1,380.53,285ZM337.7,256.49v19.89a6.67,6.67,0,0,0,6.68,6.66h18a6.68,6.68,0,0,0,6.68-6.64l.08-19.88a6.66,6.66,0,0,0-6.67-6.69H344.38A6.67,6.67,0,0,0,337.7,256.49Zm24.82,39.92H344.38a6.67,6.67,0,0,0-6.68,6.66v18.86a6.67,6.67,0,0,0,6.68,6.66h18.14a6.66,6.66,0,0,0,6.67-6.66V303.07A6.66,6.66,0,0,0,362.52,296.41Z"/><path d="M399.33,340l-7.16-7.16a6.06,6.06,0,0,1-1.79-4.31V308.22a6.1,6.1,0,0,1,1.82-4.34l7.14-7a6.12,6.12,0,0,1,4.29-1.75h15.52a6.11,6.11,0,0,0,6.11-6.1h0a6.11,6.11,0,0,0-6.11-6.1H396.93a6.11,6.11,0,0,1-6.11-6.1v-1.17a6.11,6.11,0,0,1,6.11-6.1h28.45a6.08,6.08,0,0,1,4.31,1.79l7.17,7.15a6.12,6.12,0,0,1,1.79,4.31v53a6.11,6.11,0,0,1-6.11,6.09H403.65A6.13,6.13,0,0,1,399.33,340Zm19.82-32.89h-9.27a6.11,6.11,0,0,0-6.11,6.09v10.44a6.11,6.11,0,0,0,6.11,6.09h9.27a6.11,6.11,0,0,0,6.11-6.09V313.23A6.11,6.11,0,0,0,419.15,307.14Z"/><path d="M453.73,342.11h0a6.7,6.7,0,0,1-6.7-6.69V282.88a6.68,6.68,0,0,1,2-4.74l6.85-6.82a6.68,6.68,0,0,1,4.73-1.95h21.3a6.71,6.71,0,0,1,4.76,2l6.72,6.79a6.68,6.68,0,0,1,1.94,4.7v52.57a6.7,6.7,0,0,1-6.7,6.69h0a6.7,6.7,0,0,1-6.69-6.69v-46a6.7,6.7,0,0,0-6.7-6.69h-8.09a6.7,6.7,0,0,0-6.7,6.69v46A6.69,6.69,0,0,1,453.73,342.11Z"/><path d="M516.59,269.81h14.24a6.69,6.69,0,0,0,6.7-6.68v-20a6.69,6.69,0,0,1,6.7-6.68h0a6.69,6.69,0,0,1,6.69,6.68v92.14a6.69,6.69,0,0,1-6.69,6.68H516.61a6.67,6.67,0,0,1-4.73-2l-6.82-6.81a6.65,6.65,0,0,1-2-4.73V283.19a6.66,6.66,0,0,1,2-4.76l6.79-6.69A6.75,6.75,0,0,1,516.59,269.81Zm6.59,58.78h7.65a6.69,6.69,0,0,0,6.7-6.69v-32a6.69,6.69,0,0,0-6.7-6.68h-7.65a6.69,6.69,0,0,0-6.69,6.68v32A6.69,6.69,0,0,0,523.18,328.59Z"/><path d="M8.52,102a8.09,8.09,0,0,1,2.53-6,8.3,8.3,0,0,1,6.05-2.5h6a8.32,8.32,0,0,1,6.05,2.5,8.13,8.13,0,0,1,2.53,6v98.54A21.29,21.29,0,0,1,30,208.44a20.38,20.38,0,0,1-4.29,6.86l-6.56,6.23a20.23,20.23,0,0,1-6,4.49,13.64,13.64,0,0,1-5.53,1.75q-2.25,0-3.87-2.62A11.38,11.38,0,0,1,2,219v-5.49a19.18,19.18,0,0,1,.87-6.24q.87-2.49,2.37-2.49c1,0,1.79-.87,2.37-2.62a20.36,20.36,0,0,0,.87-6.36ZM13.76,6a8.32,8.32,0,0,1,6.11-2.5A7.55,7.55,0,0,1,25.74,6l4.49,4a9.05,9.05,0,0,1,0,12.47l-4.49,4a7.23,7.23,0,0,1-5.87,2.74,7.93,7.93,0,0,1-6.11-2.74l-3.74-4A8.46,8.46,0,0,1,10,10ZM30.23,57.63a8.74,8.74,0,0,1,0,12.22l-4.49,4.24a7.21,7.21,0,0,1-5.87,2.75,7.91,7.91,0,0,1-6.11-2.75L10,69.85a8.18,8.18,0,0,1,0-12.22l3.74-3.74a7.94,7.94,0,0,1,6.11-2.75,7.24,7.24,0,0,1,5.87,2.75ZM145,3.49c0-1,.87-1.83,2.62-2.49A17.76,17.76,0,0,1,154,0h6a10.75,10.75,0,0,1,6,1.62,4.82,4.82,0,0,1,2.5,4.12,13.73,13.73,0,0,1-1.75,5.74,22.88,22.88,0,0,1-4.24,6l-6,6.49a29.68,29.68,0,0,1-7.11,4.12,20.82,20.82,0,0,1-8.11,1.87H127.52a8.46,8.46,0,0,0-6.23,2.49,8.16,8.16,0,0,0-2.5,6V60.87a8.73,8.73,0,0,0,8.73,8.48H160a8.54,8.54,0,0,1,8.49,8.49v5.73a8.92,8.92,0,0,1-2.5,6.37,8,8,0,0,1-6,2.61H127.52a8.4,8.4,0,0,0-6.23,2.52,8.54,8.54,0,0,0-2.5,6.28v17.84a8.25,8.25,0,0,0,2.5,6,8.4,8.4,0,0,0,6.23,2.51H160a8,8,0,0,1,6,2.62,8.56,8.56,0,0,1,2.5,6.09v65.45a21.41,21.41,0,0,1-1.75,7.84,17.64,17.64,0,0,1-4.24,6.6l-6,6.47a21.07,21.07,0,0,1-7.11,4.48,22,22,0,0,1-8.11,1.74H54.68A8.92,8.92,0,0,1,46,220.31V136.44a8.94,8.94,0,0,1,8.73-8.71H86.86a8.43,8.43,0,0,0,6.24-2.51,8.28,8.28,0,0,0,2.49-6V101.35a8.57,8.57,0,0,0-2.49-6.28,8.44,8.44,0,0,0-6.24-2.52H54.68a8.41,8.41,0,0,1-6.12-2.61A8.69,8.69,0,0,1,46,83.57V77.84a8,8,0,0,1,2.61-6,8.62,8.62,0,0,1,6.12-2.5H86.86a8.71,8.71,0,0,0,8.73-8.48V38.42a8.19,8.19,0,0,0-2.49-6,8.5,8.5,0,0,0-6.24-2.49H54.68a8.58,8.58,0,0,1-6.12-2.5A8.26,8.26,0,0,1,46,21.21V15.47a8.28,8.28,0,0,1,2.61-6.24,8.61,8.61,0,0,1,6.12-2.49h81.58a16.76,16.76,0,0,0,6.23-1C144.15,5.08,145,4.33,145,3.49Zm.25,155.92a8.17,8.17,0,0,0-2.5-6,8.47,8.47,0,0,0-6.24-2.5H77.88a8.47,8.47,0,0,0-6.24,2.5,8.17,8.17,0,0,0-2.49,6v37.68a8.53,8.53,0,0,0,8.73,8.73H136.5a8.54,8.54,0,0,0,8.74-8.73Z"/><path d="M256.25,229H237.79l-36.42-.5a8.18,8.18,0,0,1-6-2.5,8.47,8.47,0,0,1-2.5-6.23v-7.24q0-3.5.13-8.6a75.4,75.4,0,0,1,.62-8.61l8.74-93.8a13.1,13.1,0,0,0-.88-6.24c-.75-1.66-1.79-2.5-3.12-2.5q-2.24,0-3.74-2.64a12.87,12.87,0,0,1-1.49-6.43v-5a9.05,9.05,0,0,1,2.49-6.43,8.23,8.23,0,0,1,6.24-2.65H258a8.35,8.35,0,0,1,6.11,2.65,8.8,8.8,0,0,1,2.62,6.43V84a8.37,8.37,0,0,1-2.62,6.3A8.5,8.5,0,0,1,258,92.8H235.05a9.5,9.5,0,0,0-6.37,2.5,9.67,9.67,0,0,0-3.36,6.22l-9,95.09a7.4,7.4,0,0,0,7.48,8.71h9.48a8.58,8.58,0,0,0,6.11-2.5,8.23,8.23,0,0,0,2.62-6.23V138.46a8.63,8.63,0,0,1,2.62-6.36,8.36,8.36,0,0,1,6.11-2.62h5.49a8,8,0,0,1,6,2.62,8.87,8.87,0,0,1,2.49,6.36v81.73a8.72,8.72,0,0,1-2.49,6.18A8,8,0,0,1,256.25,229ZM193.14,8.48a8.15,8.15,0,0,1,2.49-6A8.43,8.43,0,0,1,201.87,0h53.88a8.54,8.54,0,0,1,6.11,2.5,7.94,7.94,0,0,1,2.62,6v5.74a8,8,0,0,1-2.62,6,8.57,8.57,0,0,1-6.11,2.49H201.87a8.46,8.46,0,0,1-6.24-2.49,8.17,8.17,0,0,1-2.49-6Zm118.49,3.6A7.87,7.87,0,0,0,314.25,18a8.67,8.67,0,0,0,6.12,2.46h27.69a8.17,8.17,0,0,1,6,2.5,8.48,8.48,0,0,1,2.49,6.24V220.27a8.6,8.6,0,0,1-2.49,6.12,8,8,0,0,1-6,2.63H326.85a9,9,0,0,1-8.73-8.73v-5.74a8.69,8.69,0,0,1,2.37-6.24,7.49,7.49,0,0,1,5.61-2.49,7.12,7.12,0,0,0,5.49-2.5,9,9,0,0,0,2.25-6.23V52.39a8.49,8.49,0,0,0-2.5-6.24,8.17,8.17,0,0,0-6-2.49h-5a8.61,8.61,0,0,0-6.12,2.49,8.29,8.29,0,0,0-2.62,6.24v167.9a8.61,8.61,0,0,1-2.49,6.11A8.27,8.27,0,0,1,302.9,229H284.44a8,8,0,0,1-6-2.62,8.58,8.58,0,0,1-2.5-6.11v-5.74a10.25,10.25,0,0,1,1.83-6.24,5.47,5.47,0,0,1,4.53-2.49,5.16,5.16,0,0,0,4.4-2.5,10.76,10.76,0,0,0,1.71-6.23V52.39a10.79,10.79,0,0,0-1.71-6.24,5.15,5.15,0,0,0-4.4-2.49,5.45,5.45,0,0,1-4.53-2.5,9.81,9.81,0,0,1-1.83-6V29.44a10.27,10.27,0,0,1,1.83-6.24,5.47,5.47,0,0,1,4.53-2.49,5.14,5.14,0,0,0,4.4-2.5,10.3,10.3,0,0,0,1.71-6v-2a8.34,8.34,0,0,1,2.65-6.11,8.52,8.52,0,0,1,6.18-2.62h5.55a8.42,8.42,0,0,1,6.3,2.59,8.36,8.36,0,0,1,2.52,6Z"/><path d="M449.1,33.43a9,9,0,0,0-6.12,2.3,6.79,6.79,0,0,0-2.62,5.18A6.59,6.59,0,0,0,443,46.35a9.62,9.62,0,0,0,6.12,2h15.21a8.12,8.12,0,0,1,6,2.52,8.63,8.63,0,0,1,2.5,6.3V63a8.32,8.32,0,0,1-2.5,6.06,8.12,8.12,0,0,1-6,2.52H449.1a9.91,9.91,0,0,0-6.12,2,5.73,5.73,0,0,0-2.62,4.65A5.43,5.43,0,0,0,443,82.74a10.41,10.41,0,0,0,6.12,1.83h15.21a8,8,0,0,1,6,2.65,8.76,8.76,0,0,1,2.5,6.18V99a8.61,8.61,0,0,1-2.5,6.3,8.09,8.09,0,0,1-6,2.52H449.1a9,9,0,0,0-8.74,8.73v17a8.49,8.49,0,0,1-2.5,6.24,8.24,8.24,0,0,1-6,2.49H392.25a8.17,8.17,0,0,1-6-2.52,8.58,8.58,0,0,1-2.51-6.3v-5.56a8.6,8.6,0,0,1,2.5-6.3,8.11,8.11,0,0,1,6-2.52h16.46a10.93,10.93,0,0,0,6-1.59,4.84,4.84,0,0,0,2.49-4.27q0-2.19-2.49-3.78a10.93,10.93,0,0,0-6-1.59H392.22a8.07,8.07,0,0,1-6-2.52,8.57,8.57,0,0,1-2.5-6.3V93.4a8.72,8.72,0,0,1,2.5-6.18,7.94,7.94,0,0,1,6-2.65h16.46a9.86,9.86,0,0,0,6-1.83,5.48,5.48,0,0,0,2.49-4.53,5.79,5.79,0,0,0-2.49-4.65,9.4,9.4,0,0,0-6-2H392.22a8.11,8.11,0,0,1-6-2.52,8.28,8.28,0,0,1-2.5-6.06v-5.8a8.59,8.59,0,0,1,2.5-6.3,8.11,8.11,0,0,1,6-2.52h16.46a9.13,9.13,0,0,0,6-2,6.7,6.7,0,0,0,2.49-5.44,6.9,6.9,0,0,0-2.49-5.18,8.55,8.55,0,0,0-6-2.3H392.22a8.11,8.11,0,0,1-6-2.52,8.58,8.58,0,0,1-2.5-6.31V19.31a9,9,0,0,1,2.5-6.43,7.91,7.91,0,0,1,6-2.65h16.46a11.43,11.43,0,0,0,6-1.5c1.66-1,2.49-2.16,2.49-3.49,0-1.5.88-2.74,2.65-3.74A12.32,12.32,0,0,1,426,0h5.8a11.63,11.63,0,0,1,6,1.5c1.68,1,2.52,2.24,2.52,3.74,0,1.33.88,2.49,2.62,3.49a12.1,12.1,0,0,0,6.12,1.5h15.21a7.92,7.92,0,0,1,6,2.65,9,9,0,0,1,2.5,6.43V24.6a8.62,8.62,0,0,1-2.5,6.31,8.12,8.12,0,0,1-6,2.52Z"/><path d="M406.93,211.31a8.12,8.12,0,0,1-2.52,6,8.61,8.61,0,0,1-6.3,2.5h-5.8a8.32,8.32,0,0,1-6.05-2.5,8.09,8.09,0,0,1-2.53-6V166.74a8.28,8.28,0,0,1,2.5-6.05,8.11,8.11,0,0,1,6-2.52h52.13a10.22,10.22,0,0,0,6.37-2,6.06,6.06,0,0,0,2.62-5,5.53,5.53,0,0,1,2.52-4.61,10.26,10.26,0,0,1,6.3-1.87h5.3a10.85,10.85,0,0,1,6.43,1.87,5.51,5.51,0,0,1,2.65,4.61,6.14,6.14,0,0,0,2.49,5,9.67,9.67,0,0,0,6.24,2h54.88a8.62,8.62,0,0,1,6.12,2.5,8,8,0,0,1,2.61,6v46.84a8,8,0,0,1-2.61,6,8.62,8.62,0,0,1-6.12,2.5H501a8.52,8.52,0,0,1-8.49-8.48v-3.49a8.5,8.5,0,0,1,2.48-6.24,8.08,8.08,0,0,1,5.94-2.49H517a8.39,8.39,0,0,0,6.19-2.5,8.19,8.19,0,0,0,2.47-6v-3a8.2,8.2,0,0,0-2.48-6,8.43,8.43,0,0,0-6.21-2.49H485.23a8.4,8.4,0,0,0-6.21,2.49,8.16,8.16,0,0,0-2.48,6v30.44a8.37,8.37,0,0,1-2.65,6.11,8.84,8.84,0,0,1-6.43,2.62h-5.3a8.4,8.4,0,0,1-6.3-2.62,8.51,8.51,0,0,1-2.52-6.11V189.85a8,8,0,0,0-2.61-6,8.83,8.83,0,0,0-6.33-2.49h-29a8.48,8.48,0,0,0-8.44,8.48Z"/><path class="cls-1" d="M547.26,55a21.46,21.46,0,0,0,1.62-7.86V8.48a7.92,7.92,0,0,0-2.63-6A8.59,8.59,0,0,0,540.12,0H488.54a8.59,8.59,0,0,0-6.13,2.5,7.92,7.92,0,0,0-2.63,6V135.71a8.19,8.19,0,0,0,2.65,6.24,8.69,8.69,0,0,0,6.18,2.5h5.55a10.28,10.28,0,0,0,6.3-1.88,5.37,5.37,0,0,0,2.52-4.36,5.59,5.59,0,0,1,2.5-4.62,10.13,10.13,0,0,1,6.23-1.87h28.44a8.94,8.94,0,0,0,8.73-8.73V86.07a21.46,21.46,0,0,0-1.62-7.86,14.39,14.39,0,0,0-4.11-6.11,7.31,7.31,0,0,1-2.25-5.36,8.19,8.19,0,0,1,2.25-5.62A14.39,14.39,0,0,0,547.26,55Zm-21.58,45a9.09,9.09,0,0,1-2.46,6.24,8,8,0,0,1-6.17,2.74h-5.43a7.94,7.94,0,0,1-6.17-2.74A9.06,9.06,0,0,1,503,100V87.57a8.49,8.49,0,0,1,2.47-6.24,8.33,8.33,0,0,1,6.17-2.5h5.43a8.36,8.36,0,0,1,6.17,2.5,8.52,8.52,0,0,1,2.46,6.24Zm0-53.32A8.83,8.83,0,0,1,523.22,53a8.15,8.15,0,0,1-6.17,2.6h-5.43a8.12,8.12,0,0,1-6.17-2.6A8.8,8.8,0,0,1,503,46.72V31.37a8.54,8.54,0,0,1,2.47-6.07,8.16,8.16,0,0,1,6.17-2.6h5.43a8.19,8.19,0,0,1,6.17,2.6,8.57,8.57,0,0,1,2.46,6.07Z"/></g></g></svg>