<svg xmlns="http://www.w3.org/2000/svg" viewBox="0 0 106.02 106"><defs><style>.cls-1{fill:#c1272d;}.cls-2{fill:#332c2b;}</style></defs><g id="图层_2" data-name="图层 2"><g id="图层_6" data-name="图层 6"><path class="cls-1" d="M104.09,48.75A6.64,6.64,0,0,0,106,44.07V13.52a6.65,6.65,0,0,0-2-4.7L97.25,2a6.83,6.83,0,0,0-4.82-2H62.22a2.66,2.66,0,0,0-2.53,3.57,8.9,8.9,0,0,1,.58,3.15,8.71,8.71,0,0,1-8.69,8.71H49.7A2.69,2.69,0,0,0,47,18.12V40.34A2.68,2.68,0,0,0,49.7,43h1.88a8.72,8.72,0,0,1,0,17.43H49.7A2.68,2.68,0,0,0,47,63.15V87.88a2.69,2.69,0,0,0,2.68,2.69h1.88a8.71,8.71,0,0,1,8.69,8.71,8.9,8.9,0,0,1-.58,3.15A2.66,2.66,0,0,0,62.22,106H92.43a6.83,6.83,0,0,0,4.82-2l6.82-6.83a6.66,6.66,0,0,0,2-4.7V63a6.66,6.66,0,0,0-2-4.77,6.62,6.62,0,0,1,0-9.38ZM60.61,20.13a6.73,6.73,0,0,1,6.77-6.7H85.77a6.75,6.75,0,0,1,6.78,6.73l-.09,18a6.74,6.74,0,0,1-6.78,6.66H67.38a6.73,6.73,0,0,1-6.77-6.69Zm32,65.74a6.74,6.74,0,0,1-6.78,6.7H67.38a6.73,6.73,0,0,1-6.77-6.7V65.93c0-3.7,3-7.71,6.77-7.71H85.8c3.74,0,6.78,4,6.78,7.71Z"/><path class="cls-2" d="M58.27,99.28h0A6.71,6.71,0,0,1,51.58,106H13.49a6.7,6.7,0,0,1-4.74-2L2,97.19A6.74,6.74,0,0,1,0,92.45V6.72A6.71,6.71,0,0,1,6.7,0H51.58a6.71,6.71,0,0,1,6.69,6.72h0a6.7,6.7,0,0,1-6.69,6.71H20.09a6.71,6.71,0,0,0-6.7,6.72V38.31A6.71,6.71,0,0,0,20.09,45H51.58a6.71,6.71,0,0,1,6.69,6.72h0a6.71,6.71,0,0,1-6.69,6.71H20.09a6.71,6.71,0,0,0-6.7,6.72V85.85a6.71,6.71,0,0,0,6.7,6.72H51.58A6.7,6.7,0,0,1,58.27,99.28Z"/></g></g></svg>