<svg xmlns="http://www.w3.org/2000/svg" viewBox="0 0 179.24 493.83"><g id="图层_2" data-name="图层 2"><g id="图层_24" data-name="图层 24"><path d="M177.74,42.54H1.5V1.5H177.74Z" style="fill:none;stroke:#82c3d9;stroke-width:3px"/><path d="M177.74,150.65H1.5v-36L81.62,93.33H1.5V59H177.74V93.33l-79.36,23h79.36Z" style="fill:none;stroke:#82c3d9;stroke-width:3px"/><path d="M177.74,264.7,1.5,243.82V181.48l176.24-23.72v43.29q-72.83,7.53-123.23,10.77Q105.45,215,145,218.57l32.77,2.85Z" style="fill:none;stroke:#82c3d9;stroke-width:3px"/><path d="M177.74,312.67H1.5V271.62H177.74Z" style="fill:none;stroke:#82c3d9;stroke-width:3px"/><path d="M177.74,411.8H142.47V387.43H1.5v-41h141V322.12h35.27Z" style="fill:none;stroke:#82c3d9;stroke-width:3px"/><path d="M177.74,421.16V489.6H142.47V462.21H109.05v25.63H75.52V462.21H36.77v30.12H1.5V421.16Z" style="fill:none;stroke:#82c3d9;stroke-width:3px"/></g></g></svg>