<?xml version="1.0" standalone="no"?><!DOCTYPE svg PUBLIC "-//W3C//DTD SVG 1.1//EN" "http://www.w3.org/Graphics/SVG/1.1/DTD/svg11.dtd"><svg t="1715931755831" class="icon" viewBox="0 0 1024 1024" version="1.1" xmlns="http://www.w3.org/2000/svg" p-id="4247" width="16" height="16" xmlns:xlink="http://www.w3.org/1999/xlink"><path d="M512.00032 1023.99936a508.735682 508.735682 0 0 1-198.399876-39.871975 36.543977 36.543977 0 1 1 28.415982-67.455958A439.359725 439.359725 0 0 0 950.912046 511.99968 439.359725 439.359725 0 0 0 512.00032 73.151954 439.359725 439.359725 0 0 0 73.152594 511.99968a437.759726 437.759726 0 0 0 66.943958 233.023854 36.607977 36.607977 0 0 1-61.951961 38.911976A510.463681 510.463681 0 0 1 0.00064 511.99968c0-282.239824 229.695856-511.99968 511.99968-511.99968s511.99968 229.695856 511.99968 511.99968c0 282.239824-229.695856 511.99968-511.99968 511.99968z m240.31985-526.463671a36.607977 36.607977 0 0 1-8.063995 39.807975l-183.167886 181.119887a36.543977 36.543977 0 1 1-51.391968-51.967968L630.976246 546.559658H280.320465a36.607977 36.607977 0 0 1 0-73.151954h348.607782l-118.079926-118.399926a36.543977 36.543977 0 1 1 51.839967-51.647968l181.759887 182.271886c3.391998 3.391998 5.759996 7.359995 7.807995 11.903993z" fill="#000000" p-id="4248"></path></svg>