<?xml version="1.0" standalone="no"?><!DOCTYPE svg PUBLIC "-//W3C//DTD SVG 1.1//EN" "http://www.w3.org/Graphics/SVG/1.1/DTD/svg11.dtd"><svg t="1715732633408" class="icon" viewBox="0 0 1024 1024" version="1.1" xmlns="http://www.w3.org/2000/svg" p-id="4270" width="32" height="32" xmlns:xlink="http://www.w3.org/1999/xlink"><path d="M85.333333 256a85.333333 85.333333 0 0 1 85.333334-85.333333h682.666666a85.333333 85.333333 0 0 1 85.333334 85.333333v469.333333a85.333333 85.333333 0 0 1-85.333334 85.333334h-195.669333l-115.498667 115.498666a42.666667 42.666667 0 0 1-60.330666 0L366.336 810.666667H170.666667a85.333333 85.333333 0 0 1-85.333334-85.333334V256z m768 0H170.666667v469.333333h213.333333a42.666667 42.666667 0 0 1 30.165333 12.501334L512 835.669333l97.834667-97.834666A42.666667 42.666667 0 0 1 640 725.333333h213.333333V256zM256 405.333333a42.666667 42.666667 0 0 1 42.666667-42.666666h426.666666a42.666667 42.666667 0 1 1 0 85.333333H298.666667a42.666667 42.666667 0 0 1-42.666667-42.666667z m0 170.666667a42.666667 42.666667 0 0 1 42.666667-42.666667h256a42.666667 42.666667 0 1 1 0 85.333334H298.666667a42.666667 42.666667 0 0 1-42.666667-42.666667z" fill="#333333" p-id="4271"></path></svg>