<?xml version="1.0" encoding="utf-8"?>
<!-- Generator: Adobe Illustrator 24.1.1, SVG Export Plug-In . SVG Version: 6.00 Build 0)  -->
<svg version="1.1" id="图层_1" xmlns="http://www.w3.org/2000/svg" xmlns:xlink="http://www.w3.org/1999/xlink" x="0px" y="0px"
	 viewBox="0 0 16 16" style="enable-background:new 0 0 16 16;" xml:space="preserve">
<style type="text/css">
	.st0{fill:#44FF15;}
</style>
<path class="st0" d="M10,13c0,1.1-0.9,2-2,2c-1.1,0-1.9-0.8-2-1.9L6,13H10z M8,1c0.6,0,1,0.4,1,1l0,0.1c2.3,0.5,4,2.5,4,4.9v3
	c0.6,0,1,0.4,1,1v1H2v-1c0-0.6,0.4-1,1-1V7c0-2.4,1.7-4.4,4-4.9L7,2C7,1.4,7.4,1,8,1z"/>
</svg>
