<svg xmlns="http://www.w3.org/2000/svg" viewBox="0 0 189.09 497"><g id="图层_2" data-name="图层 2"><g id="图层_24" data-name="图层 24"><path d="M129.6,64.44V38.1h13.17q9.21,0,11.73-1A3.47,3.47,0,0,0,157,33.73q0-2.56-3.41-3.88T143.3,28.54q-8.9,0-13.39,1.48t-10.86,8Q100.75,57,89,61.88T51.15,66.8q-19,0-28-2.73A29.75,29.75,0,0,1,8.09,53.53,28.74,28.74,0,0,1,2,35.34,28.53,28.53,0,0,1,9,15.91,32.77,32.77,0,0,1,26.91,5.37Q37.77,2.88,57.74,2.88H69.37V29.21H47.75q-10,0-12.84,1.11a4,4,0,0,0-2.85,3.94q0,2.84,3.62,4.21t10.75,1.39q15.69,0,20.52-2.63T83.08,24Q94.5,13.39,99.65,10t14.26-5.69Q123,2,137.17,2,157.57,2,167,5.2a29.73,29.73,0,0,1,14.76,10.34,28,28,0,0,1,5.32,17.24q0,11.05-5.81,18.83a27.4,27.4,0,0,1-14.65,10.31q-8.83,2.52-30,2.52Z" style="fill:none;stroke:#46d446;stroke-width:4px"/><path d="M183.36,140.15H64.65q-20.19,0-28.36-.81a52.14,52.14,0,0,1-16.79-4.78A31.19,31.19,0,0,1,6.44,124.09,26.52,26.52,0,0,1,2,108.76,29.18,29.18,0,0,1,7.27,91.52,32.37,32.37,0,0,1,21,80.34,53.66,53.66,0,0,1,38.81,76q9.38-.67,39.44-.67H183.36v28.35H50.17q-11.64,0-14.87.78c-2.16.51-3.24,1.56-3.24,3.13,0,1.8,1.19,3,3.57,3.47s8,.78,16.84.78H183.36Z" style="fill:none;stroke:#46d446;stroke-width:4px"/><path d="M106,217.35V189h30.87q13.47,0,16.81-.91c2.22-.61,3.34-1.94,3.34-4,0-2.33-1.36-3.82-4.06-4.44s-8.56-.95-17.56-.95H52.91q-12.94,0-16.9.95c-2.63.62-3.95,2-3.95,4.24s1.32,3.49,4,4.14,8.84,1,18.59,1H76.94v28.36H70q-27.57,0-39.11-2.39a41.17,41.17,0,0,1-20.22-10.58A26.62,26.62,0,0,1,2,184.21q0-12.47,7.35-20.55T29.7,153q13-2.62,39.12-2.63h51.89q19.2,0,28.8.81A56.24,56.24,0,0,1,168,156a33.94,33.94,0,0,1,14,11.11,27.3,27.3,0,0,1,5.1,16.34q0,12.53-7.89,20.68a38,38,0,0,1-19.67,10.71q-11.78,2.55-36.65,2.56Z" style="fill:none;stroke:#46d446;stroke-width:4px"/><path d="M106,293.73V265.37h30.87q13.47,0,16.81-.91c2.22-.6,3.34-1.94,3.34-4,0-2.34-1.36-3.82-4.06-4.45s-8.56-.94-17.56-.94H52.91Q40,255.07,36,256t-3.95,4.24c0,2.11,1.32,3.5,4,4.15s8.84,1,18.59,1H76.94v28.36H70q-27.57,0-39.11-2.39a41.09,41.09,0,0,1-20.22-10.58A26.61,26.61,0,0,1,2,260.59q0-12.46,7.35-20.54T29.7,229.34q13-2.62,39.12-2.63h51.89q19.2,0,28.8.81A56.23,56.23,0,0,1,168,232.33a34,34,0,0,1,14,11.12,27.3,27.3,0,0,1,5.1,16.33q0,12.54-7.89,20.68a38,38,0,0,1-19.67,10.71q-11.78,2.56-36.65,2.56Z" style="fill:none;stroke:#46d446;stroke-width:4px"/><path d="M183.36,303.9v47.29H147.81V332.26H114.13V350H80.34V332.26H41.28v20.81H5.73V303.9Z" style="fill:none;stroke:#46d446;stroke-width:4px"/><path d="M129.6,421.31V395h13.17q9.21,0,11.73-1a3.47,3.47,0,0,0,2.53-3.37q0-2.55-3.41-3.87c-2.27-.88-5.71-1.31-10.32-1.31q-8.9,0-13.39,1.47t-10.86,8q-18.3,18.93-30,23.85t-37.85,4.92q-19,0-28-2.73A29.75,29.75,0,0,1,8.09,410.4,30.31,30.31,0,0,1,9,372.78a32.77,32.77,0,0,1,17.89-10.54q10.86-2.5,30.83-2.5H69.37v26.34H47.75q-10,0-12.84,1.11a4,4,0,0,0-2.85,3.94q0,2.83,3.62,4.21t10.75,1.38q15.69,0,20.52-2.62t16.13-13.27q11.42-10.57,16.57-14t14.26-5.7q9.11-2.25,23.26-2.25,20.4,0,29.84,3.2a29.73,29.73,0,0,1,14.76,10.34,28,28,0,0,1,5.32,17.24q0,11.06-5.81,18.83a27.38,27.38,0,0,1-14.65,10.3q-8.83,2.54-30,2.53Z" style="fill:none;stroke:#46d446;stroke-width:4px"/><path d="M129.6,492.64V466.31h13.17q9.21,0,11.73-1a3.47,3.47,0,0,0,2.53-3.36q0-2.56-3.41-3.88t-10.32-1.31q-8.9,0-13.39,1.48t-10.86,8q-18.3,18.93-30,23.85T51.15,495q-19,0-28-2.73A29.75,29.75,0,0,1,8.09,481.73,30.31,30.31,0,0,1,9,444.11a32.77,32.77,0,0,1,17.89-10.54q10.86-2.49,30.83-2.49H69.37v26.33H47.75q-10,0-12.84,1.12a4,4,0,0,0-2.85,3.94c0,1.88,1.21,3.29,3.62,4.21s6,1.38,10.75,1.38q15.69,0,20.52-2.63t16.13-13.27q11.42-10.57,16.57-14t14.26-5.69q9.11-2.26,23.26-2.26,20.4,0,29.84,3.2a29.73,29.73,0,0,1,14.76,10.34A28,28,0,0,1,187.09,461q0,11.06-5.81,18.83a27.4,27.4,0,0,1-14.65,10.31q-8.83,2.52-30,2.52Z" style="fill:none;stroke:#46d446;stroke-width:4px"/></g></g></svg>