<svg xmlns="http://www.w3.org/2000/svg" viewBox="0 0 1188.12 694.04"><g id="图层_2" data-name="图层 2"><g id="图层_24" data-name="图层 24"><path d="M163.2,633.7h0a13.46,13.46,0,0,1-13.46,13.45H73.14a13.49,13.49,0,0,1-9.54-3.95L49.93,629.51A13.45,13.45,0,0,1,46,620V448.41A13.46,13.46,0,0,1,59.47,435h90.27a13.46,13.46,0,0,1,13.46,13.45h0a13.45,13.45,0,0,1-13.46,13.44H86.4A13.46,13.46,0,0,0,72.94,475.3v36.35A13.46,13.46,0,0,0,86.4,525.1h63.34a13.45,13.45,0,0,1,13.46,13.44h0A13.46,13.46,0,0,1,149.74,552H86.4a13.46,13.46,0,0,0-13.46,13.45v41.37A13.46,13.46,0,0,0,86.4,620.26h63.34A13.45,13.45,0,0,1,163.2,633.7Z" style="fill:#333"/><path d="M195,502.05a13.39,13.39,0,0,1,13.22,11.25l17.13,105.8a2.08,2.08,0,0,0,2.06,1.75h0a2.08,2.08,0,0,0,2.05-1.76l16.6-105.72a13.39,13.39,0,0,1,13.23-11.32h0a13.38,13.38,0,0,1,13.18,15.75L250.11,641.71a7.32,7.32,0,0,1-7.21,6H212.2a7.33,7.33,0,0,1-7.21-6L181.84,517.87A13.38,13.38,0,0,1,195,502.05Z" style="fill:#333"/><path d="M374.07,593.66H331.74a13.46,13.46,0,0,0-13.46,13.45h0a13.45,13.45,0,0,0,13.46,13.44h42.33A13.46,13.46,0,0,1,387.53,634h0a13.46,13.46,0,0,1-13.46,13.45H318.29a13.47,13.47,0,0,1-9.59-4l-13.49-13.68a13.42,13.42,0,0,1-3.87-9.43v-91.1a13.46,13.46,0,0,1,3.94-9.5l13.43-13.43a13.45,13.45,0,0,1,9.53-4h42.39a13.49,13.49,0,0,1,9.54,4l13.43,13.46a13.43,13.43,0,0,1,3.93,9.5v51A13.46,13.46,0,0,1,374.07,593.66ZM331.74,570h15.39a13.46,13.46,0,0,0,13.47-13.45V542.68a13.46,13.46,0,0,0-13.47-13.45H331.74a13.46,13.46,0,0,0-13.46,13.45v13.89A13.46,13.46,0,0,0,331.74,570Z" style="fill:#333"/><path d="M417.27,648h0a13.46,13.46,0,0,1-13.47-13.45V528.91a13.47,13.47,0,0,1,4-9.53l13.77-13.71a13.51,13.51,0,0,1,9.51-3.92h42.84a13.5,13.5,0,0,1,9.58,4L497,519.4a13.42,13.42,0,0,1,3.89,9.45V634.59A13.46,13.46,0,0,1,487.41,648h0A13.46,13.46,0,0,1,474,634.59v-92.5a13.46,13.46,0,0,0-13.47-13.45H444.2a13.46,13.46,0,0,0-13.46,13.45v92.5A13.46,13.46,0,0,1,417.27,648Z" style="fill:#333"/><path d="M602.39,634.3h0A13.44,13.44,0,0,1,589,647.74H566.39a11.72,11.72,0,0,1-8.27-3.42l-14.75-14.73a11.65,11.65,0,0,1-3.43-8.26V541.52a11.69,11.69,0,0,0-11.69-11.69H524a13.45,13.45,0,0,1-13.45-13.45h0A13.45,13.45,0,0,1,524,502.93h8.24a7.69,7.69,0,0,0,7.69-7.69v-14.3a13.48,13.48,0,0,1,13.48-13.47h0a13.46,13.46,0,0,1,13.46,13.46v10.33a11.66,11.66,0,0,0,11.67,11.67h10.39a13.46,13.46,0,0,1,13.45,13.46h0A13.44,13.44,0,0,1,589,529.83H578.57a11.69,11.69,0,0,0-11.69,11.69v67.65a11.67,11.67,0,0,0,11.67,11.68h10.39A13.45,13.45,0,0,1,602.39,634.3Z" style="fill:#333"/><path d="M799.43,533.14l-.21.21a13.39,13.39,0,0,0,.11,18.85h0a13.43,13.43,0,0,1,3.93,9.48v59a13.39,13.39,0,0,1-3.87,9.41l-13.5,13.67a13.43,13.43,0,0,1-9.55,4H699.78a13.41,13.41,0,0,1-13.42-13.4V449a13.41,13.41,0,0,1,13.42-13.4h76.56a13.43,13.43,0,0,1,9.55,4l13.5,13.67a13.39,13.39,0,0,1,3.87,9.41v61.15A13.4,13.4,0,0,1,799.43,533.14Zm-87.14-57.29v40a13.41,13.41,0,0,0,13.42,13.4H762a13.42,13.42,0,0,0,13.42-13.34l.17-40a13.4,13.4,0,0,0-13.42-13.46H725.71A13.41,13.41,0,0,0,712.29,475.85Zm49.91,80.28H725.71a13.41,13.41,0,0,0-13.42,13.4v37.92a13.41,13.41,0,0,0,13.42,13.4H762.2a13.41,13.41,0,0,0,13.42-13.4V569.53A13.41,13.41,0,0,0,762.2,556.13Z" style="fill:#c1272d"/><path d="M837.25,643.85l-14.42-14.39a12.26,12.26,0,0,1-3.59-8.67V579.88a12.26,12.26,0,0,1,3.65-8.74L837.26,557a12.28,12.28,0,0,1,8.62-3.53H877.1a12.27,12.27,0,0,0,12.28-12.27h0a12.27,12.27,0,0,0-12.28-12.26H832.41a12.27,12.27,0,0,1-12.28-12.27v-2.36a12.27,12.27,0,0,1,12.28-12.26h57.21a12.27,12.27,0,0,1,8.68,3.59L912.71,520a12.23,12.23,0,0,1,3.6,8.67V635.18A12.28,12.28,0,0,1,904,647.45h-58.1A12.28,12.28,0,0,1,837.25,643.85ZM877.1,577.7H858.45A12.27,12.27,0,0,0,846.17,590v21a12.27,12.27,0,0,0,12.28,12.26H877.1A12.27,12.27,0,0,0,889.38,611V590A12.27,12.27,0,0,0,877.1,577.7Z" style="fill:#333"/><path d="M946.65,648h0a13.46,13.46,0,0,1-13.47-13.45V528.91a13.43,13.43,0,0,1,4-9.53l13.77-13.71a13.47,13.47,0,0,1,9.51-3.92h42.84a13.48,13.48,0,0,1,9.57,4l13.53,13.66a13.42,13.42,0,0,1,3.89,9.45V634.59A13.46,13.46,0,0,1,1016.79,648h0a13.46,13.46,0,0,1-13.47-13.45v-92.5a13.46,13.46,0,0,0-13.47-13.45H973.58a13.46,13.46,0,0,0-13.47,13.45v92.5A13.46,13.46,0,0,1,946.65,648Z" style="fill:#333"/><path d="M1073.07,502.64h28.65a13.46,13.46,0,0,0,13.47-13.45V449a13.46,13.46,0,0,1,13.47-13.45h0A13.46,13.46,0,0,1,1142.12,449V634.3a13.45,13.45,0,0,1-13.46,13.44h-55.54a13.43,13.43,0,0,1-9.52-3.94l-13.72-13.69a13.49,13.49,0,0,1-3.94-9.51V529.54a13.4,13.4,0,0,1,4-9.57l13.66-13.46A13.49,13.49,0,0,1,1073.07,502.64Zm13.27,118.21h15.38a13.46,13.46,0,0,0,13.47-13.45V543a13.46,13.46,0,0,0-13.47-13.45h-15.38A13.46,13.46,0,0,0,1072.87,543V607.4A13.46,13.46,0,0,0,1086.34,620.85Z" style="fill:#333"/><path d="M65.87,413.5a19.93,19.93,0,0,1-14.31-6c-7.71-7.9-7.27-20.67.53-28.47l10.85-10.85a10,10,0,0,0,2.93-7.08V210c0-10.84,8.44-20.08,19.27-20.47a20,20,0,0,1,20.73,20v164A20,20,0,0,1,100,387.64l-20,20A19.94,19.94,0,0,1,65.87,413.5Z" style="fill:#333"/><path d="M108.25,140.75v4.75a20,20,0,0,1-20,20H83.5a20,20,0,0,1-20-20V130.75a10,10,0,0,1,10-10H88.25A20,20,0,0,1,108.25,140.75Z" style="fill:#333"/><path d="M108.25,72.5v4.75a20,20,0,0,1-20,20H83.5a20,20,0,0,1-20-20V62.5a10,10,0,0,1,10-10H88.25A20,20,0,0,1,108.25,72.5Z" style="fill:#333"/><path d="M358.87,205.5a20,20,0,0,0,20-20.68c-.36-10.87-9.64-19.32-20.51-19.32H291.11a10,10,0,0,1-10-10v-43a10,10,0,0,1,10-10h46.44a20,20,0,0,0,14.55-6.27l15.57-16.5a20,20,0,0,0-29.09-27.46l-6.69,7.09a10,10,0,0,1-7.28,3.14H169.15C158.28,62.5,149,71,148.63,81.82a20,20,0,0,0,20,20.68h62.49a10,10,0,0,1,10,10v43a10,10,0,0,1-10,10H163.4c-10.87,0-20.15,8.45-20.52,19.32a20,20,0,0,0,20,20.68h68.24a10,10,0,0,1,10,10V254a10,10,0,0,1-10,10H161.87a10,10,0,0,0-10,10V394a20,20,0,0,0,20,20H334.63a23.8,23.8,0,0,0,17.28-7.43l12.45-13.16A23.8,23.8,0,0,0,370.87,377V284a20,20,0,0,0-20-20H291.11a10,10,0,0,1-10-10V215.5a10,10,0,0,1,10-10ZM320.87,374h-119a10,10,0,0,1-10-10V314a10,10,0,0,1,10-10h119a10,10,0,0,1,10,10V364A10,10,0,0,1,320.87,374Z" style="fill:#333"/><path d="M557.87,106h-105a20,20,0,0,1,0-40h105a20,20,0,0,1,0,40Z" style="fill:#333"/><path d="M564.87,209a20,20,0,0,0,20-20.73c-.38-10.83-9.62-19.27-20.47-19.27h-118c-10.84,0-20.08,8.44-20.46,19.27a20,20,0,0,0,20,20.73h0a8.34,8.34,0,0,1,8.28,9.35L433,391.55A20,20,0,0,0,442.43,411,20.54,20.54,0,0,0,453.26,414H555.87a20,20,0,0,0,20-20V277.45c0-10.84-8.43-20.08-19.27-20.46a20,20,0,0,0-20.73,20v87a10,10,0,0,1-10,10H486.75a10,10,0,0,1-9.92-11.21l17.68-145a10,10,0,0,1,9.93-8.79Z" style="fill:#333"/><path d="M738.87,84h-60a10,10,0,0,1-10-10V70.45c0-10.84-8.43-20.08-19.27-20.46a20,20,0,0,0-20.73,20v4a10,10,0,0,1-10,10h-9.52c-10.84,0-20.08,8.44-20.46,19.27a20,20,0,0,0,20,20.73h10a10,10,0,0,1,10,10V365.45a8.51,8.51,0,0,1-8.52,8.52h0c-10.44,0-19.49,7.81-20.4,18.21A20,20,0,0,0,619.87,414h29a20,20,0,0,0,20-20V134a10,10,0,0,1,10-10h30a10,10,0,0,1,10,10V365.45a8.51,8.51,0,0,1-8.52,8.52h-12c-10.84,0-20.08,8.44-20.46,19.27a20,20,0,0,0,20,20.73h23.61a18.07,18.07,0,0,0,12.8-5.3l19.29-19.29a18.11,18.11,0,0,0,5.3-12.8V104A20,20,0,0,0,738.87,84Z" style="fill:#333"/><path d="M964.12,172a20,20,0,0,0,20-20.73c-.38-10.83-9.62-19.27-20.47-19.27H937.12a5,5,0,0,1-5-5v-9a5,5,0,0,1,5-5h26.52c10.85,0,20.09-8.43,20.47-19.27a20,20,0,0,0-20-20.73H934.64a2.52,2.52,0,0,1-2.52-2.52h0c0-10.84-8.43-20.08-19.27-20.46a20,20,0,0,0-20.73,20v.48A2.52,2.52,0,0,1,889.6,73h-43c-10.84,0-20.08,8.44-20.46,19.27a20,20,0,0,0,20,20.73h41a5,5,0,0,1,5,5v9a5,5,0,0,1-5,5H846.6c-10.84,0-20.08,8.44-20.46,19.27a20,20,0,0,0,20,20.73h41a5,5,0,0,1,5,5v9a5,5,0,0,1-5,5H846.6c-10.84,0-20.08,8.44-20.46,19.27a20,20,0,0,0,20,20.73h41a5,5,0,0,1,5,5v6a5,5,0,0,1-5,5H841.6c-10.84,0-20.08,8.44-20.46,19.27a20,20,0,0,0,20,20.73h65.14a14.17,14.17,0,0,0,10-4.14L928,271.12a14.17,14.17,0,0,0,4.14-10V241a10,10,0,0,1,10-10h21.52c10.85,0,20.09-8.43,20.47-19.27a20,20,0,0,0-20-20.73h-27a5,5,0,0,1-5-5v-9a5,5,0,0,1,5-5Z" style="fill:#333"/><path d="M1122.12,305h-110.5a10,10,0,0,1-10-10v-.52c0-10.84-8.43-20.08-19.27-20.46a20,20,0,0,0-20.73,20v1a10,10,0,0,1-10,10H831.12a10,10,0,0,0-10,10v63.52c0,10.85,8.44,20.09,19.27,20.47a20,20,0,0,0,20.73-20V355a10,10,0,0,1,10-10h80.5a10,10,0,0,1,10,10v38.52c0,10.85,8.44,20.09,19.27,20.47a20,20,0,0,0,20.73-20V355a10,10,0,0,1,10-10h81a9.5,9.5,0,0,1,9.5,9.5h0a9.5,9.5,0,0,1-9.5,9.5h-24c-10.84,0-20.08,8.44-20.46,19.27a20,20,0,0,0,20,20.73h40.59a22,22,0,0,0,15.61-6.5l11.44-11.55a21.94,21.94,0,0,0,6.36-15.46V325A20,20,0,0,0,1122.12,305Z" style="fill:#333"/><path d="M1128,145.39l8-8a20,20,0,0,0,5.85-14.14V75.5a20,20,0,0,0-20-20h-105a10,10,0,0,0-10,10V265c0,10.85,8.44,20.08,19.27,20.47a20,20,0,0,0,20.73-20h0a6,6,0,0,1,6-6h56.55a17.78,17.78,0,0,0,12.37-5l14.68-14.22a17.81,17.81,0,0,0,5.4-12.77V195.85a20,20,0,0,0-5.85-14.14l-8-8A20,20,0,0,1,1128,145.39Zm-26.11,64.11a10,10,0,0,1-10,10h-35a10,10,0,0,1-10-10v-22a10,10,0,0,1,10-10h35a10,10,0,0,1,10,10Zm0-82a10,10,0,0,1-10,10h-35a10,10,0,0,1-10-10v-22a10,10,0,0,1,10-10h35a10,10,0,0,1,10,10Z" style="fill:#c1272d"/><path d="M65.87,413.5a19.93,19.93,0,0,1-14.31-6c-7.71-7.9-7.27-20.67.53-28.47l10.85-10.85a10,10,0,0,0,2.93-7.08V210c0-10.84,8.44-20.08,19.27-20.47a20,20,0,0,1,20.73,20v164A20,20,0,0,1,100,387.64l-20,20A19.94,19.94,0,0,1,65.87,413.5Z" style="fill:#333"/><path d="M108.25,140.75v4.75a20,20,0,0,1-20,20H83.5a20,20,0,0,1-20-20V130.75a10,10,0,0,1,10-10H88.25A20,20,0,0,1,108.25,140.75Z" style="fill:#333"/><path d="M108.25,72.5v4.75a20,20,0,0,1-20,20H83.5a20,20,0,0,1-20-20V62.5a10,10,0,0,1,10-10H88.25A20,20,0,0,1,108.25,72.5Z" style="fill:#333"/><path d="M358.87,205.5a20,20,0,0,0,20-20.68c-.36-10.87-9.64-19.32-20.51-19.32H291.11a10,10,0,0,1-10-10v-43a10,10,0,0,1,10-10h46.44a20,20,0,0,0,14.55-6.27l15.57-16.5a20,20,0,0,0-29.09-27.46l-6.69,7.09a10,10,0,0,1-7.28,3.14H169.15C158.28,62.5,149,71,148.63,81.82a20,20,0,0,0,20,20.68h62.49a10,10,0,0,1,10,10v43a10,10,0,0,1-10,10H163.4c-10.87,0-20.15,8.45-20.52,19.32a20,20,0,0,0,20,20.68h68.24a10,10,0,0,1,10,10V254a10,10,0,0,1-10,10H161.87a10,10,0,0,0-10,10V394a20,20,0,0,0,20,20H334.63a23.8,23.8,0,0,0,17.28-7.43l12.45-13.16A23.8,23.8,0,0,0,370.87,377V284a20,20,0,0,0-20-20H291.11a10,10,0,0,1-10-10V215.5a10,10,0,0,1,10-10ZM320.87,374h-119a10,10,0,0,1-10-10V314a10,10,0,0,1,10-10h119a10,10,0,0,1,10,10V364A10,10,0,0,1,320.87,374Z" style="fill:#333"/><path d="M557.87,106h-105a20,20,0,0,1,0-40h105a20,20,0,0,1,0,40Z" style="fill:#333"/><path d="M564.87,209a20,20,0,0,0,20-20.73c-.38-10.83-9.62-19.27-20.47-19.27h-118c-10.84,0-20.08,8.44-20.46,19.27a20,20,0,0,0,20,20.73h0a8.34,8.34,0,0,1,8.28,9.35L433,391.55A20,20,0,0,0,442.43,411,20.54,20.54,0,0,0,453.26,414H555.87a20,20,0,0,0,20-20V277.45c0-10.84-8.43-20.08-19.27-20.46a20,20,0,0,0-20.73,20v87a10,10,0,0,1-10,10H486.75a10,10,0,0,1-9.92-11.21l17.68-145a10,10,0,0,1,9.93-8.79Z" style="fill:#333"/><path d="M738.87,84h-60a10,10,0,0,1-10-10V70.45c0-10.84-8.43-20.08-19.27-20.46a20,20,0,0,0-20.73,20v4a10,10,0,0,1-10,10h-9.52c-10.84,0-20.08,8.44-20.46,19.27a20,20,0,0,0,20,20.73h10a10,10,0,0,1,10,10V365.45a8.51,8.51,0,0,1-8.52,8.52h0c-10.44,0-19.49,7.81-20.4,18.21A20,20,0,0,0,619.87,414h29a20,20,0,0,0,20-20V134a10,10,0,0,1,10-10h30a10,10,0,0,1,10,10V365.45a8.51,8.51,0,0,1-8.52,8.52h-12c-10.84,0-20.08,8.44-20.46,19.27a20,20,0,0,0,20,20.73h23.61a18.07,18.07,0,0,0,12.8-5.3l19.29-19.29a18.11,18.11,0,0,0,5.3-12.8V104A20,20,0,0,0,738.87,84Z" style="fill:#333"/><path d="M964.12,172a20,20,0,0,0,20-20.73c-.38-10.83-9.62-19.27-20.47-19.27H937.12a5,5,0,0,1-5-5v-9a5,5,0,0,1,5-5h26.52c10.85,0,20.09-8.43,20.47-19.27a20,20,0,0,0-20-20.73H934.64a2.52,2.52,0,0,1-2.52-2.52h0c0-10.84-8.43-20.08-19.27-20.46a20,20,0,0,0-20.73,20v.48A2.52,2.52,0,0,1,889.6,73h-43c-10.84,0-20.08,8.44-20.46,19.27a20,20,0,0,0,20,20.73h41a5,5,0,0,1,5,5v9a5,5,0,0,1-5,5H846.6c-10.84,0-20.08,8.44-20.46,19.27a20,20,0,0,0,20,20.73h41a5,5,0,0,1,5,5v9a5,5,0,0,1-5,5H846.6c-10.84,0-20.08,8.44-20.46,19.27a20,20,0,0,0,20,20.73h41a5,5,0,0,1,5,5v6a5,5,0,0,1-5,5H841.6c-10.84,0-20.08,8.44-20.46,19.27a20,20,0,0,0,20,20.73h65.14a14.17,14.17,0,0,0,10-4.14L928,271.12a14.17,14.17,0,0,0,4.14-10V241a10,10,0,0,1,10-10h21.52c10.85,0,20.09-8.43,20.47-19.27a20,20,0,0,0-20-20.73h-27a5,5,0,0,1-5-5v-9a5,5,0,0,1,5-5Z" style="fill:#333"/><path d="M1122.12,305h-110.5a10,10,0,0,1-10-10v-.52c0-10.84-8.43-20.08-19.27-20.46a20,20,0,0,0-20.73,20v1a10,10,0,0,1-10,10H831.12a10,10,0,0,0-10,10v63.52c0,10.85,8.44,20.09,19.27,20.47a20,20,0,0,0,20.73-20V355a10,10,0,0,1,10-10h80.5a10,10,0,0,1,10,10v38.52c0,10.85,8.44,20.09,19.27,20.47a20,20,0,0,0,20.73-20V355a10,10,0,0,1,10-10h81a9.5,9.5,0,0,1,9.5,9.5h0a9.5,9.5,0,0,1-9.5,9.5h-24c-10.84,0-20.08,8.44-20.46,19.27a20,20,0,0,0,20,20.73h40.59a22,22,0,0,0,15.61-6.5l11.44-11.55a21.94,21.94,0,0,0,6.36-15.46V325A20,20,0,0,0,1122.12,305Z" style="fill:#333"/><path d="M1128,145.39l8-8a20,20,0,0,0,5.85-14.14V75.5a20,20,0,0,0-20-20h-105a10,10,0,0,0-10,10V265c0,10.85,8.44,20.08,19.27,20.47a20,20,0,0,0,20.73-20h0a6,6,0,0,1,6-6h56.55a17.78,17.78,0,0,0,12.37-5l14.68-14.22a17.81,17.81,0,0,0,5.4-12.77V195.85a20,20,0,0,0-5.85-14.14l-8-8A20,20,0,0,1,1128,145.39Zm-26.11,64.11a10,10,0,0,1-10,10h-35a10,10,0,0,1-10-10v-22a10,10,0,0,1,10-10h35a10,10,0,0,1,10,10Zm0-82a10,10,0,0,1-10,10h-35a10,10,0,0,1-10-10v-22a10,10,0,0,1,10-10h35a10,10,0,0,1,10,10Z" style="fill:#c1272d"/><path d="M1188.12,370.46V325a66.11,66.11,0,0,0-19.64-46.91,3.33,3.33,0,0,1,0-4.76,63.71,63.71,0,0,0,19.39-45.75v-31.7a65.3,65.3,0,0,0-8.95-33.25,6,6,0,0,1,0-6.13,65.39,65.39,0,0,0,8.95-33.26V75.5a66,66,0,0,0-66-66h-105a55.64,55.64,0,0,0-39.46,16.3,6,6,0,0,1-5,1.71,66,66,0,0,0-8.27-.54,4.69,4.69,0,0,1-3.45-1.53l-.48-.52A65.31,65.31,0,0,0,914.49,4c-.8,0-1.59,0-2.37,0a65.6,65.6,0,0,0-48.34,21.1,6,6,0,0,1-4.39,1.9H846.6A66.56,66.56,0,0,0,801.07,44.9a67.72,67.72,0,0,0-8.58,9.71,6,6,0,0,1-8.9.83A65.54,65.54,0,0,0,738.87,38h-29a6,6,0,0,1-5.1-2.84,66.36,66.36,0,0,0-7.83-10.21A65.31,65.31,0,0,0,651.24,4c-.8,0-1.59,0-2.37,0a66.14,66.14,0,0,0-50.45,23.51,6,6,0,0,1-7.57,1.36,65.92,65.92,0,0,0-33-8.87h-105A66.17,66.17,0,0,0,416.3,31.09,6,6,0,0,1,408,29.35a66,66,0,0,0-97-14.17,5.88,5.88,0,0,1-3.75,1.32H169.14a66.38,66.38,0,0,0-30.46,7.34,6.09,6.09,0,0,1-6.85-.86A65.87,65.87,0,0,0,88.25,6.5H73.49a56,56,0,0,0-56,56V77.25a66,66,0,0,0,5.15,25.51,6,6,0,0,1-.08,4.76,55.75,55.75,0,0,0-5.07,23.23V145.5a65.57,65.57,0,0,0,8.1,31.63,6,6,0,0,1,.22,5.32A66.85,66.85,0,0,0,19.87,210V346.16l-.3.31a67.07,67.07,0,0,0-14.29,73,5.9,5.9,0,0,1-.06,4.68A59.39,59.39,0,0,0,0,448.41V620a59.06,59.06,0,0,0,17.38,42L31.05,675.7a59.09,59.09,0,0,0,42.08,17.45h76.6a58.92,58.92,0,0,0,28.62-7.34,6.13,6.13,0,0,1,6.14.15,53.31,53.31,0,0,0,27.71,7.78h30.7A53.12,53.12,0,0,0,276,682.23a6,6,0,0,1,7.24-.22,59.91,59.91,0,0,0,35.05,11.43h55.77a59.19,59.19,0,0,0,18.86-3.06,5.78,5.78,0,0,1,3.83,0,59.36,59.36,0,0,0,52.31-5.57,6.1,6.1,0,0,1,6.57,0,59.32,59.32,0,0,0,68-3.15,6,6,0,0,1,7.39,0,57.29,57.29,0,0,0,35.32,12.06H776.33a59.44,59.44,0,0,0,31.89-9.3,6.12,6.12,0,0,1,6.57,0,58.2,58.2,0,0,0,31.14,9H904a57.7,57.7,0,0,0,18.48-3,5.73,5.73,0,0,1,3.77,0A58.66,58.66,0,0,0,946.64,694a59.33,59.33,0,0,0,31.79-9.23,6.1,6.1,0,0,1,6.57,0,59.3,59.3,0,0,0,57.64,3.29,6,6,0,0,1,5.12,0,59.36,59.36,0,0,0,25.36,5.66h55.53a59.53,59.53,0,0,0,59.47-59.45V449a59,59,0,0,0-11.06-34.51,6,6,0,0,1,0-6.81A67.9,67.9,0,0,0,1188.12,370.46Zm-12,0a55.78,55.78,0,0,1-14,37,6,6,0,0,0,.23,8.2A47.1,47.1,0,0,1,1176.12,449V634.29a47.51,47.51,0,0,1-47.47,47.45h-55.53a47.33,47.33,0,0,1-24.82-7,6,6,0,0,0-6.34,0,47.33,47.33,0,0,1-56.31-4.41,6,6,0,0,0-7.88,0A47.32,47.32,0,0,1,946.64,682a47,47,0,0,1-19.6-4.26,5.95,5.95,0,0,0-4.84,0h0A46,46,0,0,1,904,681.44h-58.1A46.19,46.19,0,0,1,815.46,670a6,6,0,0,0-7.9,0A47.9,47.9,0,0,1,793,678.71a47.31,47.31,0,0,1-16.66,3H566.39a45.68,45.68,0,0,1-32.29-13.36l-2.53-2.53a6,6,0,0,0-8.73.25,47.35,47.35,0,0,1-66.56,4.27,6,6,0,0,0-7.88,0A47.37,47.37,0,0,1,417.27,682a46.93,46.93,0,0,1-19.75-4.33,5.94,5.94,0,0,0-4.86-.06,46.91,46.91,0,0,1-9.09,2.84,47.86,47.86,0,0,1-9.51,1H318.28a47.45,47.45,0,0,1-33.8-14.14l-.88-.89a6,6,0,0,0-8.88.38,41.3,41.3,0,0,1-31.82,15H212.2A41.39,41.39,0,0,1,185.53,672a6,6,0,0,0-7.46-.23,47.31,47.31,0,0,1-28.35,9.41H73.13a47.17,47.17,0,0,1-33.59-13.93L25.87,653.54A47.15,47.15,0,0,1,12,620V448.24a46.73,46.73,0,0,1,6.27-23.36,5.89,5.89,0,0,0,.81-3,6.09,6.09,0,0,0-.7-2.81h0A54.92,54.92,0,0,1,28.05,355a12.89,12.89,0,0,0,2.83-4.23,13,13,0,0,0,1-5V210a54.74,54.74,0,0,1,7.4-27.49,6,6,0,0,0-.25-6.42h0a53.81,53.81,0,0,1-9.52-30.56V130.75a43.81,43.81,0,0,1,6.15-22.38,6,6,0,0,0,.14-5.88,53.66,53.66,0,0,1-4.69-12.23,54.27,54.27,0,0,1-1.6-13V62.5a44,44,0,0,1,44-44H88.25a54,54,0,0,1,41.14,19.09,6,6,0,0,0,8.05,1,54.4,54.4,0,0,1,31.7-10.1H311.8a6,6,0,0,0,4.13-1.65,54,54,0,0,1,74.26-.12,53.45,53.45,0,0,1,13.44,20.21,6,6,0,0,0,10,2,53.43,53.43,0,0,1,39.25-17h105a54,54,0,0,1,35,12.91,6,6,0,0,0,9.1-1.59A54.2,54.2,0,0,1,648.87,16c.64,0,1.29,0,1.94,0A53.37,53.37,0,0,1,688.16,33.1a54.64,54.64,0,0,1,9.25,13.49,6,6,0,0,0,5.4,3.38h36.06a53.74,53.74,0,0,1,45.84,25.52,6,6,0,0,0,10.72-1.1,53.58,53.58,0,0,1,5.67-11.14A54.77,54.77,0,0,1,846.6,39h18.31a6,6,0,0,0,4.73-2.29A53.73,53.73,0,0,1,912.12,16c.64,0,1.29,0,1.94,0A53.37,53.37,0,0,1,951.41,33.1c1.07,1.15,2.1,2.35,3.06,3.58l.4.51A4.69,4.69,0,0,0,958.54,39h5.58a53.33,53.33,0,0,1,12.16,1.43,5.76,5.76,0,0,0,1.37.16,6,6,0,0,0,4.7-2.29,43.79,43.79,0,0,1,34.52-16.77h105a54,54,0,0,1,54,54v47.71a53.35,53.35,0,0,1-11,32.68,6,6,0,0,0,0,7.28,53.26,53.26,0,0,1,8.2,15.39,54,54,0,0,1,2.8,17.29V227.5a52.08,52.08,0,0,1-15.74,37.18l-9.68,9.39a3.32,3.32,0,0,0,.38,5.09l2.6,1.86a54.18,54.18,0,0,1,22.69,44Z" style="fill:#333"/></g></g></svg>