<?xml version="1.0" encoding="utf-8"?>
<!-- Generator: Adobe Illustrator 24.1.1, SVG Export Plug-In . SVG Version: 6.00 Build 0)  -->
<svg version="1.1" xmlns="http://www.w3.org/2000/svg" xmlns:xlink="http://www.w3.org/1999/xlink" x="0px" y="0px"
	 viewBox="0 0 16 16" style="enable-background:new 0 0 16 16;" xml:space="preserve">
<style type="text/css">
	.st0{display:none;}
</style>
<g id="图层_1">
	<path class="st0" d="M0,8c0-1.1,0.2-2.1,0.6-3.1c0.1-0.3,0.5-0.4,0.7-0.3c0.3,0.1,0.4,0.5,0.3,0.7c-1.5,3.5,0.2,7.5,3.7,9
		c0.8,0.3,1.7,0.5,2.6,0.5c3.8,0,6.9-3.1,6.9-6.9c0-3.8-3.1-6.9-6.9-6.9c-1.3,0-2.6,0.4-3.6,1C4.1,2.3,3.7,2.3,3.6,2
		C3.4,1.7,3.5,1.4,3.8,1.2C5,0.4,6.5,0,8,0c4.4,0,8,3.6,8,8s-3.6,8-8,8C3.6,16,0,12.4,0,8z"/>
	<path d="M12.2,8.2H8.3V4.3c0-0.3-0.2-0.5-0.5-0.5C7.5,3.8,7.3,4,7.3,4.3v4.4c0,0.3,0.2,0.5,0.5,0.5h4.4c0.3,0,0.5-0.2,0.5-0.5
		S12.5,8.2,12.2,8.2z"/>
	<circle cx="1.4" cy="4.7" r="0.6"/>
	<circle cx="2.4" cy="2.9" r="0.6"/>
	<circle cx="4" cy="1.7" r="0.6"/>
	<path d="M8,16c-4.4,0-8-3.6-8-8c0-0.5,0.1-1.1,0.2-1.6C0.2,6.1,0.5,5.9,0.8,6C1,6,1.2,6.3,1.2,6.6C1.1,7.1,1,7.5,1,8
		c0,3.9,3.1,7,7,7s7-3.1,7-7s-3.1-7-7-7C7.3,1,6.6,1.1,5.9,1.3C5.6,1.4,5.3,1.3,5.2,1C5.2,0.7,5.3,0.5,5.6,0.4C6.3,0.1,7.2,0,8,0
		c4.4,0,8,3.6,8,8C16,12.4,12.4,16,8,16z"/>
</g>
<g id="图层_2">
</g>
</svg>
