<svg xmlns="http://www.w3.org/2000/svg" viewBox="0 0 187.33 496.1"><g id="图层_2" data-name="图层 2"><g id="图层_24" data-name="图层 24"><path d="M182.12,109.18,5.22,97.1V63.22Q46,58.57,98,55,75.69,53.38,5.22,47.44V13.75L182.12,1.61V28l-61.73,2.86L60.72,33.61q46.32,1.5,121.4,7.5V69.29q-7.77.55-58.35,3l-67.31,3q64.23,2.33,125.66,7.58Z" style="fill:none;stroke:#c93633;stroke-width:3px"/><path d="M182.12,160.14,5.22,175.66V147.93L37,146.47v-9.7L5.22,135.14V107.08l176.9,13.84ZM68.37,145.76q30.06-2.06,74.3-4.13-50.8-4.14-74.3-5.21Z" style="fill:none;stroke:#c93633;stroke-width:3px"/><path d="M182.12,180.27v19.21q0,19.2-2.52,26t-12.84,11.09q-10.32,4.29-32.94,4.28-20.65,0-27.75-3T97.54,225.9q-3.37,8.06-9.06,10.83A35.55,35.55,0,0,1,78,240.18q-4.76.67-26.17.67H5.22v-25.2H64q14.2,0,17.59-1.32T85,207.4H5.22V180.27ZM151.85,207.4H112.51q0,4.57,2.13,6.42c1.43,1.22,6,1.83,13.83,1.83h9.72q8.42,0,11-1.77T151.85,207.4Z" style="fill:none;stroke:#c93633;stroke-width:3px"/><path d="M182.12,311.94H5.22V288.16l80.41-14.11H5.22V251.36h176.9v22.69l-79.66,15.21h79.66Z" style="fill:none;stroke:#c93633;stroke-width:3px"/><path d="M182.12,350H5.22V322.84h176.9Z" style="fill:none;stroke:#c93633;stroke-width:3px"/><path d="M182.12,421.45H5.22V397.67l80.41-14.12H5.22V360.86h176.9v22.69l-79.66,15.21h79.66Z" style="fill:none;stroke:#c93633;stroke-width:3px"/><path d="M117,494.6V467.47h16.07q15.18,0,19-.78c2.55-.51,3.82-1.74,3.82-3.67q0-2.5-3.28-3.41t-16.82-.91H50.89q-11.91,0-15.68.91t-3.77,3.6q0,3,4.26,4t16.61,1.07h21v-5.48h26.88V494.6H5.22V477.55L17.89,475Q9.7,472.27,5.6,468a13.84,13.84,0,0,1-4.1-10q0-6.84,5.63-12.81a36.3,36.3,0,0,1,13.93-9.06,65.7,65.7,0,0,1,17.43-3.87q9.12-.76,27.37-.77h52.55q25.35,0,36.83,1.61a42.72,42.72,0,0,1,21,9.25,24.13,24.13,0,0,1,9.56,19.75,26.12,26.12,0,0,1-8.3,19.79,40,40,0,0,1-19.72,10.25q-11.43,2.38-33.17,2.38Z" style="fill:none;stroke:#c93633;stroke-width:3px"/></g></g></svg>